<svg xmlns="http://www.w3.org/2000/svg" width="47" height="33" viewBox="0 0 47 33"><g fill="none" fill-rule="evenodd"><path fill="#FFF" fill-opacity=".6" d="M26.817,17.004 L26.8124681,17.0522393 C26.4510838,20.0835173 25.5939255,23.1266536 24.5939671,26.5048741 C24.5105776,26.7868575 24.3371776,27.0353587 24.0986406,27.2143667 C22.5654189,28.3658425 20.5771338,29 18.4997328,29 C16.4223319,29 14.4341363,28.3658425 12.901183,27.2142795 C12.6629145,27.0354459 12.4894249,26.7867703 12.4060354,26.5049613 C11.406077,23.1267408 10.5489188,20.0837789 10.1875344,17.0523265 C10.1856185,17.0362531 10.1837172,17.0201868 10.1818305,17.0041276 L26.817,17.004 Z M17.9993325,4.02407549 L18.0002279,7.0644591 C17.4174837,7.22009658 17,7.64027527 17,8.1342171 L17,12.8656188 C17,13.3597547 17.4174837,13.7799234 18.0002279,13.935548 L18,16 L10.0822279,16.0002128 C9.83899925,12.9803453 10.1333261,10.1839204 10.99244,7.28161022 C11.0757401,6.99988839 11.2492296,6.75130005 11.4876771,6.57229204 C13.4398148,5.10604808 15.4289052,4.25364556 17.4154903,4.02528608 L17.5760301,4.02514711 C17.6093272,4.02510078 17.6469846,4.02503902 17.6882097,4.02495667 L17.9993325,4.02407549 Z M19.3629753,4 C21.4231973,4.18868648 23.487714,5.05146502 25.5123255,6.57220484 C25.7506835,6.75121286 25.9240835,6.99988839 26.007473,7.28152302 C26.8666672,10.1838332 27.1610023,12.9802581 26.9177745,16.0001256 L19,16 L19.0012764,13.9351199 C19.5832131,13.779154 20,13.3593023 20,12.8656188 L20,8.1342171 C20,7.6407275 19.5831458,7.22086603 19.0012335,7.06488725 L19.0026031,4.01564222 C19.2159084,4.01198783 19.3629754,4.00694867 19.3629753,4 Z M18.4999515,8 C18.7736775,8 19,8.13978408 19,8.24687342 L19,12.7529703 C19,12.8602911 18.7737883,13 18.4999515,13 C18.2261495,13 18,12.8603272 18,12.7529703 L18,8.24687342 C18,8.13971037 18.2262049,8 18.4999515,8 Z"/><path fill="#FFA600" d="M17.9875711,4.02411862 L18.0002279,7.0644591 C17.4174837,7.22009658 17,7.64027527 17,8.1342171 L17,12.8656188 C17,13.3597547 17.4174837,13.7799234 18.0002279,13.935548 L18,15.9991186 L10.0821477,15.9992159 C9.85412467,13.1668071 10.099009,10.5309359 10.8392703,7.81986223 L10.99244,7.28161022 C11.0757401,6.99988839 11.2492296,6.75130005 11.4876771,6.57229204 C13.4398148,5.10604808 15.4289052,4.25364556 17.4154903,4.02528608 L17.5760301,4.02514711 C17.6093272,4.02510078 17.6469846,4.02503902 17.6882097,4.02495667 L17.9875711,4.02411862 Z"/><text fill="#FFA600" font-family="Helvetica" font-size="13">
            <tspan x="32" y="21">2</tspan>
        </text></g></svg>