<svg xmlns="http://www.w3.org/2000/svg" width="35" height="29" viewBox="0 0 35 29"><g fill="none" fill-rule="evenodd"><path fill="#FFF" fill-opacity=".6" d="M20.817,15.004 L20.8124681,15.0522393 C20.4510838,18.0835173 19.5939255,21.1266536 18.5939671,24.5048741 C18.5105776,24.7868575 18.3371776,25.0353587 18.0986406,25.2143667 C16.5654189,26.3658425 14.5771338,27 12.4997328,27 C10.4223319,27 8.4341363,26.3658425 6.90118298,25.2142795 C6.66291445,25.0354459 6.4894249,24.7867703 6.40603539,24.5049613 C5.40607705,21.1267408 4.54891877,18.0837789 4.1875344,15.0523265 C4.1856185,15.0362531 4.18371719,15.0201868 4.18183049,15.0041276 L20.817,15.004 Z M11.9993325,2.02407549 L12.0002279,5.0644591 C11.4174837,5.22009658 11,5.64027527 11,6.1342171 L11,10.8656188 C11,11.3597547 11.4174837,11.7799234 12.0002279,11.935548 L12,14 L4.08222792,14.0002128 C3.83899925,10.9803453 4.13332614,8.18392037 4.99244002,5.28161022 C5.07574006,4.99988839 5.24922961,4.75130005 5.48767709,4.57229204 C7.4398148,3.10604808 9.42890516,2.25364556 11.4154903,2.02528608 L11.5760301,2.02514711 C11.6093272,2.02510078 11.6469846,2.02503902 11.6882097,2.02495667 L11.9993325,2.02407549 Z M13.3629753,2 C15.4231973,2.18868648 17.487714,3.05146502 19.5123255,4.57220484 C19.7506835,4.75121286 19.9240835,4.99988839 20.007473,5.28152302 C20.8666672,8.18383317 21.1610023,10.9802581 20.9177745,14.0001256 L13,14 L13.0012764,11.9351199 C13.5832131,11.779154 14,11.3593023 14,10.8656188 L14,6.1342171 C14,5.6407275 13.5831458,5.22086603 13.0012335,5.06488725 L13.0026031,2.01564222 C13.2159084,2.01198783 13.3629754,2.00694867 13.3629753,2 Z M12.4999515,6 C12.7736775,6 13,6.13978408 13,6.24687342 L13,10.7529703 C13,10.8602911 12.7737883,11 12.4999515,11 C12.2261495,11 12,10.8603272 12,10.7529703 L12,6.24687342 C12,6.13971037 12.2262049,6 12.4999515,6 Z"/><text fill="#FFA600" font-family="Helvetica" font-size="13">
            <tspan x="26" y="19">2</tspan>
        </text><path fill="#FFA600" d="M13,10.7529703 L13,6.24687342 C13,6.13978408 12.7736775,6 12.4999515,6 C12.2262049,6 12,6.13971037 12,6.24687342 L12,10.7529703 C12,10.8603272 12.2261495,11 12.4999515,11 C12.7737883,11 13,10.8602911 13,10.7529703 Z"/></g></svg>