<svg xmlns="http://www.w3.org/2000/svg" width="35" height="29" viewBox="0 0 35 29"><g fill="none" fill-rule="evenodd"><path fill="#FFF" fill-opacity=".6" d="M20.817,15.004 L20.8124681,15.0522393 C20.4510838,18.0835173 19.5939255,21.1266536 18.5939671,24.5048741 C18.5105776,24.7868575 18.3371776,25.0353587 18.0986406,25.2143667 C16.5654189,26.3658425 14.5771338,27 12.4997328,27 C10.4223319,27 8.4341363,26.3658425 6.90118298,25.2142795 C6.66291445,25.0354459 6.4894249,24.7867703 6.40603539,24.5049613 C5.40607705,21.1267408 4.54891877,18.0837789 4.1875344,15.0523265 C4.1856185,15.0362531 4.18371719,15.0201868 4.18183049,15.0041276 L20.817,15.004 Z M11.9993325,2.02407549 L12.0002279,5.0644591 C11.4174837,5.22009658 11,5.64027527 11,6.1342171 L11,10.8656188 C11,11.3597547 11.4174837,11.7799234 12.0002279,11.935548 L12,14 L4.08222792,14.0002128 C3.83899925,10.9803453 4.13332614,8.18392037 4.99244002,5.28161022 C5.07574006,4.99988839 5.24922961,4.75130005 5.48767709,4.57229204 C7.4398148,3.10604808 9.42890516,2.25364556 11.4154903,2.02528608 L11.5760301,2.02514711 C11.6093272,2.02510078 11.6469846,2.02503902 11.6882097,2.02495667 L11.9993325,2.02407549 Z M13.3629753,2 C15.4231973,2.18868648 17.487714,3.05146502 19.5123255,4.57220484 C19.7506835,4.75121286 19.9240835,4.99988839 20.007473,5.28152302 C20.8666672,8.18383317 21.1610023,10.9802581 20.9177745,14.0001256 L13,14 L13.0012764,11.9351199 C13.5832131,11.779154 14,11.3593023 14,10.8656188 L14,6.1342171 C14,5.6407275 13.5831458,5.22086603 13.0012335,5.06488725 L13.0026031,2.01564222 C13.2159084,2.01198783 13.3629754,2.00694867 13.3629753,2 Z M12.4999515,6 C12.7736775,6 13,6.13978408 13,6.24687342 L13,10.7529703 C13,10.8602911 12.7737883,11 12.4999515,11 C12.2261495,11 12,10.8603272 12,10.7529703 L12,6.24687342 C12,6.13971037 12.2262049,6 12.4999515,6 Z"/><path fill="#FFA600" d="M32.6423257 17.9037103 27.6697241 17.9037103C27.8191289 17.4316191 28.0668596 17.0485924 28.412916 16.7546302 28.9320007 16.313687 30.8333427 15.2912392 31.2643519 14.9980694 31.6953611 14.7048996 32.6931774 13.9159689 32.6931774 12.6242706 32.6931774 11.3325722 32.0644524 10.8079311 31.5742245 10.3783123 31.0839965 9.9486935 30.3986371 9.84697799 29.4005936 9.89426263 28.8305265 9.92127088 28.2560096 10.0706733 27.8090803 10.3783123 27.4735492 10.6092715 27.2151153 10.9693144 27.0558236 11.2133721 26.8081775 11.5928013 26.669202 12.227218 26.6388971 13.1166222L27.8090803 13.1166222C27.8331079 12.3848131 27.9738645 11.8565198 28.2313501 11.5317423 28.6175786 11.0445759 29.2354454 10.9306488 29.6822357 10.9306488 29.9277437 10.9306488 30.365981 10.9810401 30.7330475 11.2133721 31.0339908 11.4038519 31.3225864 11.7539504 31.3832397 12.1323853 31.4659477 12.6484252 31.4103379 13.2313417 31.1184692 13.6413727 30.8266006 14.0514037 29.3097164 14.9213433 28.9320007 15.1619691 28.5542851 15.4025949 27.7869415 15.8370819 27.4674072 16.167511 27.1478729 16.4979401 26.8250732 17.0257874 26.6617889 17.5420532 26.5529327 17.8862305 26.4591051 18.3638244 26.3803059 18.974835L32.6423257 18.974835 32.6423257 17.9037103ZM13 10.7529703 13 6.24687342C13 6.13978408 12.7736775 6 12.4999515 6 12.2262049 6 12 6.13971037 12 6.24687342L12 10.7529703C12 10.8603272 12.2261495 11 12.4999515 11 12.7737883 11 13 10.8602911 13 10.7529703Z"/></g></svg>