<svg xmlns="http://www.w3.org/2000/svg" width="47" height="33" viewBox="0 0 47 33"><g fill="none" fill-rule="evenodd"><path fill="#FFF" fill-opacity=".6" d="M31.817,17.004 L31.8124681,17.0522393 C31.4510838,20.0835173 30.5939255,23.1266536 29.5939671,26.5048741 C29.5105776,26.7868575 29.3371776,27.0353587 29.0986406,27.2143667 C27.5654189,28.3658425 25.5771338,29 23.4997328,29 C21.4223319,29 19.4341363,28.3658425 17.901183,27.2142795 C17.6629145,27.0354459 17.4894249,26.7867703 17.4060354,26.5049613 C16.406077,23.1267408 15.5489188,20.0837789 15.1875344,17.0523265 C15.1856185,17.0362531 15.1837172,17.0201868 15.1818305,17.0041276 L31.817,17.004 Z M22.9993325,4.02407549 L23.0002279,7.0644591 C22.4174837,7.22009658 22,7.64027527 22,8.1342171 L22,12.8656188 C22,13.3597547 22.4174837,13.7799234 23.0002279,13.935548 L23,16 L15.0822279,16.0002128 C14.8389992,12.9803453 15.1333261,10.1839204 15.99244,7.28161022 C16.0757401,6.99988839 16.2492296,6.75130005 16.4876771,6.57229204 C18.4398148,5.10604808 20.4289052,4.25364556 22.4154903,4.02528608 L22.5760301,4.02514711 C22.6093272,4.02510078 22.6469846,4.02503902 22.6882097,4.02495667 L22.9993325,4.02407549 Z M24.3629753,4 C26.4231973,4.18868648 28.487714,5.05146502 30.5123255,6.57220484 C30.7506835,6.75121286 30.9240835,6.99988839 31.007473,7.28152302 C31.8666672,10.1838332 32.1610023,12.9802581 31.9177745,16.0001256 L24,16 L24.0012764,13.9351199 C24.5832131,13.779154 25,13.3593023 25,12.8656188 L25,8.1342171 C25,7.6407275 24.5831458,7.22086603 24.0012335,7.06488725 L24.0026031,4.01564222 C24.2159084,4.01198783 24.3629754,4.00694867 24.3629753,4 Z M23.4999515,8 C23.7736775,8 24,8.13978408 24,8.24687342 L24,12.7529703 C24,12.8602911 23.7737883,13 23.4999515,13 C23.2261495,13 23,12.8603272 23,12.7529703 L23,8.24687342 C23,8.13971037 23.2262049,8 23.4999515,8 Z"/><path fill="#FFA600" d="M24.3629753,4 C26.4231973,4.18868648 28.487714,5.05146502 30.5123255,6.57220484 C30.7506835,6.75121286 30.9240835,6.99988839 31.007473,7.28152302 C31.8666672,10.1838332 32.1610023,12.9802581 31.9177745,16.0001256 L24,16 L24.0008799,13.9352261 C24.5395651,13.7909817 24.9368227,13.4206408 24.9931333,12.9748944 L25,12.8656188 L25,8.1342171 C25,7.64061544 24.5829564,7.22067535 24.000837,7.06478103 L24.0019111,4.01565406 C24.2155903,4.01199872 24.3629754,4.00695618 24.3629753,4 Z"/></g></svg>