<svg xmlns="http://www.w3.org/2000/svg" width="35" height="29" viewBox="0 0 35 29"><g fill="none" fill-rule="evenodd"><path fill="#FFA600" d="M21.7220177,14.5002032 L16.5455407,8.92457122 C16.1038674,8.48438975 16.1038674,7.77194788 16.5455407,7.33013611 C16.987214,6.88995463 17.700813,6.88995463 18.1424863,7.33013611 L24.4544593,13.7013554 C24.8961326,14.1431671 24.8961326,14.8572393 24.4544593,15.2974208 L18.1424863,21.66864 C17.7024611,22.1120821 16.987214,22.1088215 16.5455407,21.66864 C16.1038674,21.2300889 16.1038674,20.5160167 16.5455407,20.0742049 L21.7220177,14.5002032 L21.7220177,14.5002032 Z" transform="rotate(-180 20.5 14.5)"/><path fill="#FFA600" d="M15.7220177,14.5002032 L10.5455407,8.92457122 C10.1038674,8.48438975 10.1038674,7.77194788 10.5455407,7.33013611 C10.987214,6.88995463 11.700813,6.88995463 12.1424863,7.33013611 L18.4544593,13.7013554 C18.8961326,14.1431671 18.8961326,14.8572393 18.4544593,15.2974208 L12.1424863,21.66864 C11.7024611,22.1120821 10.987214,22.1088215 10.5455407,21.66864 C10.1038674,21.2300889 10.1038674,20.5160167 10.5455407,20.0742049 L15.7220177,14.5002032 L15.7220177,14.5002032 Z" transform="rotate(-180 14.5 14.5)"/></g></svg>