<svg xmlns="http://www.w3.org/2000/svg" width="35" height="29" viewBox="0 0 35 29"><g fill="none" fill-rule="evenodd"><path fill="#FFA600" d="M18.7220177,16.7144889 L13.5455407,11.1388569 C13.1038674,10.6986755 13.1038674,9.9862336 13.5455407,9.54442182 C13.987214,9.10424035 14.700813,9.10424035 15.1424863,9.54442182 L21.4544593,15.9156411 C21.8961326,16.3574529 21.8961326,17.071525 21.4544593,17.5117065 L15.1424863,23.8829258 C14.7024611,24.3263678 13.987214,24.3231072 13.5455407,23.8829258 C13.1038674,23.4443746 13.1038674,22.7303024 13.5455407,22.2884906 L18.7220177,16.7144889 L18.7220177,16.7144889 Z" transform="rotate(90 17.5 16.714)"/><path fill="#FFA600" d="M18.7220177,10.2859175 L13.5455407,4.71028551 C13.1038674,4.27010403 13.1038674,3.55766217 13.5455407,3.11585039 C13.987214,2.67566892 14.700813,2.67566892 15.1424863,3.11585039 L21.4544593,9.48706965 C21.8961326,9.92888143 21.8961326,10.6429536 21.4544593,11.0831351 L15.1424863,17.4543543 C14.7024611,17.8977964 13.987214,17.8945358 13.5455407,17.4543543 C13.1038674,17.0158032 13.1038674,16.301731 13.5455407,15.8599192 L18.7220177,10.2859175 L18.7220177,10.2859175 Z" transform="rotate(90 17.5 10.286)"/></g></svg>