<svg xmlns="http://www.w3.org/2000/svg" width="31" height="25" viewBox="0 0 31 25"><path fill="#FFF" fill-opacity=".6" fill-rule="evenodd" d="M12.5,15 C13.7093254,15 14.7180997,15.8584425 14.9499027,16.9990548 L23,16.9997446 L23,17.9994892 L14.9499027,17.9996682 C14.7180997,19.1402804 13.7093254,19.998723 12.5,19.998723 C11.2906746,19.998723 10.2819003,19.1402804 10.0500973,17.9996682 L8,17.9994892 L8,16.9997446 L10.0500973,16.9990548 C10.2819003,15.8584425 11.2906746,15 12.5,15 Z M12.5001277,16 C11.6717712,16 11.0002555,16.6713442 11.0002555,17.4994892 C11.0002555,18.3276342 11.6717712,18.9989784 12.5001277,18.9989784 C13.3284843,18.9989784 14,18.3276342 14,17.4994892 C14,16.6713442 13.3284843,16 12.5001277,16 Z M18.5,10 C19.7093254,10 20.7180997,10.8584425 20.9499027,11.9990548 L23,11.9997446 L23,12.9994892 L20.9499027,12.9996682 C20.7180997,14.1402804 19.7093254,14.998723 18.5,14.998723 C17.2906746,14.998723 16.2819003,14.1402804 16.0500973,12.9996682 L8,12.9994892 L8,11.9997446 L16.0500973,11.9990548 C16.2819003,10.8584425 17.2906746,10 18.5,10 Z M18.5001277,11 C17.6717712,11 17.0002555,11.6713442 17.0002555,12.4994892 C17.0002555,13.3276342 17.6717712,13.9989784 18.5001277,13.9989784 C19.3284843,13.9989784 20,13.3276342 20,12.4994892 C20,11.6713442 19.3284843,11 18.5001277,11 Z M13.5,5 C14.7093254,5 15.7180997,5.85844252 15.9499027,6.99905481 L23,6.99974459 L23,7.99948919 L15.9499027,7.99966816 C15.7180997,9.14028044 14.7093254,9.99872297 13.5,9.99872297 C12.2906746,9.99872297 11.2819003,9.14028044 11.0500973,7.99966816 L8,7.99948919 L8,6.99974459 L11.0500973,6.99905481 C11.2819003,5.85844252 12.2906746,5 13.5,5 Z M13.5001277,6 C12.6717712,6 12.0002555,6.67134418 12.0002555,7.49948919 C12.0002555,8.3276342 12.6717712,8.99897838 13.5001277,8.99897838 C14.3284843,8.99897838 15,8.3276342 15,7.49948919 C15,6.67134418 14.3284843,6 13.5001277,6 Z"/></svg>