<svg xmlns="http://www.w3.org/2000/svg" width="16" height="16" viewBox="0 0 16 16"><path d="M5.39284008,5.138509 C5.03432273,5.35907336 6.3528966,8.54081457 6.67451955,9.05894031 C6.95523783,9.51530803 7.55116264,9.65406307 8.00432215,9.37494889 C8.45988782,9.0926265 8.60185106,8.49750375 8.32113278,8.04354218 C8.00271804,7.52381234 5.75055537,4.91714258 5.39284008,5.138509 Z M5.12412599,2.22603858 C5.86839063,1.96031815 6.66558789,1.81306132 7.49727155,1.81306132 C8.32895521,1.81306132 9.12615246,1.96031815 9.87041711,2.22603858 C10.1342782,2.31982226 10.4839542,2.13143223 10.3291664,1.72339096 C10.2160831,1.42723197 10.1070099,1.1376543 10.0628993,1.02001337 C9.95783612,0.741130321 9.58169375,0.510784442 9.41808385,0.472941904 C8.79893266,0.329798394 8.15732521,0.25 7.49727155,0.25 C6.83721788,0.25 6.19561043,0.329798394 5.57565723,0.472941904 C5.41204733,0.510784442 5.03670698,0.741130321 4.93164376,1.02001337 C4.88753324,1.1376543 4.77765797,1.42723197 4.66537666,1.72339096 C4.51058887,2.13143223 4.86026493,2.32064492 5.12412599,2.22603858 Z M15.0647558,2.88522325 C14.9106754,2.70075124 14.7469649,2.52028948 14.572822,2.34624415 C14.3994815,2.17219882 14.2189185,2.00938221 14.0351455,1.85458613 C13.9123627,1.75112139 13.5512367,1.66690591 13.3225236,1.89549079 C13.094613,2.12407568 12,3.21647082 12,3.21647082 C12.3226059,3.44746186 12.6363842,3.70171242 12.92689,3.99125328 C13.2173958,4.28079413 13.470184,4.59439656 13.7021071,4.91762361 C13.7021071,4.91762361 14.7959176,3.82522847 15.0238282,3.59664358 C15.2533438,3.36725664 15.1690811,3.00713519 15.0647558,2.88522325 Z M7.50040121,3.75 C4.46196321,3.75 2,6.21175327 2,9.24959879 C2,12.2881418 4.46185823,14.75 7.50040121,14.75 C10.5377406,14.75 13,12.2877406 13,9.24959879 C13,6.21266065 10.5373393,3.75 7.50040121,3.75 Z M7.50040121,2.75 C11.0896241,2.75 14,5.6603759 14,9.24959879 C14,12.8404265 11.0896241,15.75 7.50040121,15.75 C3.90957348,15.75 1,12.8404265 1,9.24959879 C1,5.65957348 3.90957348,2.75 7.50040121,2.75 Z"/></svg>