<svg xmlns="http://www.w3.org/2000/svg" width="35" height="29" viewBox="0 0 35 29"><g fill="none" fill-rule="evenodd"><path fill="#424242" d="M25.817,15.004 L25.8124681,15.0522393 C25.4510838,18.0835173 24.5939255,21.1266536 23.5939671,24.5048741 C23.5105776,24.7868575 23.3371776,25.0353587 23.0986406,25.2143667 C21.5654189,26.3658425 19.5771338,27 17.4997328,27 C15.4223319,27 13.4341363,26.3658425 11.901183,25.2142795 C11.6629145,25.0354459 11.4894249,24.7867703 11.4060354,24.5049613 C10.406077,21.1267408 9.54891877,18.0837789 9.1875344,15.0523265 C9.1856185,15.0362531 9.18371719,15.0201868 9.18183049,15.0041276 L25.817,15.004 Z M16.9993325,2.02407549 L17.0002279,5.0644591 C16.4174837,5.22009658 16,5.64027527 16,6.1342171 L16,10.8656188 C16,11.3597547 16.4174837,11.7799234 17.0002279,11.935548 L17,14 L9.08222792,14.0002128 C8.83899925,10.9803453 9.13332614,8.18392037 9.99244002,5.28161022 C10.0757401,4.99988839 10.2492296,4.75130005 10.4876771,4.57229204 C12.4398148,3.10604808 14.4289052,2.25364556 16.4154903,2.02528608 L16.5760301,2.02514711 C16.6093272,2.02510078 16.6469846,2.02503902 16.6882097,2.02495667 L16.9993325,2.02407549 Z M18.3629753,2 C20.4231973,2.18868648 22.487714,3.05146502 24.5123255,4.57220484 C24.7506835,4.75121286 24.9240835,4.99988839 25.007473,5.28152302 C25.8666672,8.18383317 26.1610023,10.9802581 25.9177745,14.0001256 L18,14 L18.0012764,11.9351199 C18.5832131,11.779154 19,11.3593023 19,10.8656188 L19,6.1342171 C19,5.6407275 18.5831458,5.22086603 18.0012335,5.06488725 L18.0026031,2.01564222 C18.2159084,2.01198783 18.3629754,2.00694867 18.3629753,2 Z M17.4999515,6 C17.7736775,6 18,6.13978408 18,6.24687342 L18,10.7529703 C18,10.8602911 17.7737883,11 17.4999515,11 C17.2261495,11 17,10.8603272 17,10.7529703 L17,6.24687342 C17,6.13971037 17.2262049,6 17.4999515,6 Z"/><path fill="#000" d="M18,10.7529703 L18,6.24687342 C18,6.13978408 17.7736775,6 17.4999515,6 C17.2262049,6 17,6.13971037 17,6.24687342 L17,10.7529703 C17,10.8603272 17.2261495,11 17.4999515,11 C17.7737883,11 18,10.8602911 18,10.7529703 Z"/></g></svg>