<svg xmlns="http://www.w3.org/2000/svg" xmlns:xlink="http://www.w3.org/1999/xlink" width="35" height="29" viewBox="0 0 35 29"><defs><path id="a" d="M17,3 C23.0751322,3 28,7.92486775 28,14 C28,20.0751322 23.0751322,25 17,25 C10.9248678,25 6,20.0751322 6,14 C6,7.92486775 10.9248678,3 17,3 Z M7.75,14 C7.75,19.1086339 11.8913661,23.25 17,23.25 C19.1819568,23.25 21.1874604,22.4945141 22.7691992,21.230854 L9.79328736,8.200711 C8.51511388,9.78706924 7.75,11.8041837 7.75,14 Z M17,4.75 C14.8171192,4.75 12.8108411,5.50612583 11.2287916,6.77075161 L24.2763833,19.7117464 C25.5126394,18.1390274 26.25,16.1556236 26.25,14 C26.25,8.89136606 22.1086339,4.75 17,4.75 Z"/></defs><use xlink:href="#a" fill="#424242"/></svg>